<?xml version="1.0" encoding="UTF-8" standalone="no"?>
<!DOCTYPE svg PUBLIC "-//W3C//DTD SVG 1.1//EN"
 "http://www.w3.org/Graphics/SVG/1.1/DTD/svg11.dtd">
<!-- Generated by graphviz version 12.1.2 (20240928.0832)
 -->
<!-- Title: example_graph Pages: 1 -->
<svg width="177pt" height="188pt"
 viewBox="0.00 0.00 176.67 188.00" xmlns="http://www.w3.org/2000/svg" xmlns:xlink="http://www.w3.org/1999/xlink">
<g id="graph0" class="graph" transform="scale(1 1) rotate(0) translate(4 184)">
<title>example_graph</title>
<polygon fill="white" stroke="none" points="-4,4 -4,-184 172.67,-184 172.67,4 -4,4"/>
<!-- hello -->
<g id="node1" class="node">
<title>hello</title>
<ellipse fill="none" stroke="black" cx="81.53" cy="-162" rx="29.34" ry="18"/>
<text text-anchor="middle" x="81.53" y="-156.95" font-family="Times,serif" font-size="14.00">hello</text>
</g>
<!-- neno -->
<g id="node2" class="node">
<title>neno</title>
<ellipse fill="none" stroke="black" cx="37.53" cy="-90" rx="28.83" ry="18"/>
<text text-anchor="middle" x="37.53" y="-84.95" font-family="Times,serif" font-size="14.00">neno</text>
</g>
<!-- hello&#45;&gt;neno -->
<g id="edge1" class="edge">
<title>hello&#45;&gt;neno</title>
<path fill="none" stroke="black" d="M66.57,-146.15C60.39,-137.96 53.52,-127.53 47.89,-117.95"/>
<polygon fill="black" stroke="black" points="51.02,-116.39 43.09,-109.36 44.91,-119.8 51.02,-116.39"/>
</g>
<!-- my&#45;note -->
<g id="node3" class="node">
<title>my&#45;note</title>
<ellipse fill="none" stroke="black" cx="126.53" cy="-90" rx="42.14" ry="18"/>
<text text-anchor="middle" x="126.53" y="-84.95" font-family="Times,serif" font-size="14.00">my&#45;note</text>
</g>
<!-- hello&#45;&gt;my&#45;note -->
<g id="edge2" class="edge">
<title>hello&#45;&gt;my&#45;note</title>
<path fill="none" stroke="black" d="M86.55,-144.05C91.06,-135.65 97.49,-125.32 103.94,-116.02"/>
<polygon fill="black" stroke="black" points="106.69,-118.21 109.71,-108.06 101.02,-114.1 106.69,-118.21"/>
</g>
<!-- neno&#45;&gt;hello -->
<g id="edge5" class="edge">
<title>neno&#45;&gt;hello</title>
<path fill="none" stroke="black" d="M52.53,-105.89C58.72,-114.1 65.6,-124.55 71.23,-134.14"/>
<polygon fill="black" stroke="black" points="68.1,-135.7 76.02,-142.73 74.21,-132.29 68.1,-135.7"/>
</g>
<!-- subtext -->
<g id="node4" class="node">
<title>subtext</title>
<ellipse fill="none" stroke="black" cx="37.53" cy="-18" rx="37.53" ry="18"/>
<text text-anchor="middle" x="37.53" y="-12.95" font-family="Times,serif" font-size="14.00">subtext</text>
</g>
<!-- neno&#45;&gt;subtext -->
<g id="edge4" class="edge">
<title>neno&#45;&gt;subtext</title>
<path fill="none" stroke="black" d="M31.65,-72.05C30.86,-64.57 30.61,-55.58 30.9,-47.14"/>
<polygon fill="black" stroke="black" points="34.38,-47.51 31.57,-37.3 27.4,-47.04 34.38,-47.51"/>
</g>
<!-- my&#45;note&#45;&gt;hello -->
<g id="edge3" class="edge">
<title>my&#45;note&#45;&gt;hello</title>
<path fill="none" stroke="black" d="M121.33,-108.29C116.68,-116.92 110.05,-127.5 103.47,-136.9"/>
<polygon fill="black" stroke="black" points="100.68,-134.79 97.61,-144.93 106.33,-138.92 100.68,-134.79"/>
</g>
<!-- subtext&#45;&gt;neno -->
<g id="edge6" class="edge">
<title>subtext&#45;&gt;neno</title>
<path fill="none" stroke="black" d="M43.39,-35.79C44.2,-43.25 44.45,-52.24 44.17,-60.69"/>
<polygon fill="black" stroke="black" points="40.69,-60.33 43.51,-70.54 47.67,-60.8 40.69,-60.33"/>
</g>
</g>
</svg>
